<?xml version="1.0" standalone="no"?>
<!DOCTYPE svg PUBLIC "-//W3C//DTD SVG 20010904//EN"
 "http://www.w3.org/TR/2001/REC-SVG-20010904/DTD/svg10.dtd">
<svg version="1.0" xmlns="http://www.w3.org/2000/svg"
 width="1024.000000pt" height="1024.000000pt" viewBox="0 0 1024.000000 1024.000000"
 preserveAspectRatio="xMidYMid meet">
<metadata>
Created by potrace 1.14, written by Peter Selinger 2001-2017
</metadata>
<g transform="translate(0.000000,1024.000000) scale(0.100000,-0.100000)"
fill="#000000" stroke="none">
<path d="M4915 10234 c-450 -28 -701 -65 -1060 -155 -555 -140 -1064 -364
-1539 -676 -1326 -871 -2166 -2285 -2297 -3868 -16 -193 -16 -637 0 -830 23
-286 70 -563 142 -850 286 -1131 948 -2125 1886 -2831 764 -574 1691 -925
2658 -1005 193 -16 637 -16 830 0 739 61 1475 286 2110 646 66 37 192 114 279
172 1326 871 2166 2285 2297 3868 7 83 13 269 13 415 0 465 -44 826 -155 1265
-284 1121 -937 2109 -1860 2810 -713 542 -1514 871 -2434 999 -216 31 -681 52
-870 40z m1167 -1212 c2 -4 39 -18 83 -31 44 -13 109 -32 145 -44 80 -25 431
-152 474 -171 17 -8 60 -28 96 -44 72 -32 97 -56 131 -121 41 -79 37 -147 -22
-446 -12 -60 -26 -139 -31 -175 -35 -258 -19 -302 160 -467 53 -48 163 -152
245 -230 133 -128 153 -144 204 -159 80 -23 162 -15 433 46 52 11 104 25 115
30 11 5 47 14 80 20 33 7 70 17 82 22 12 6 55 11 95 12 69 1 76 -1 132 -38 32
-22 67 -53 77 -70 36 -58 191 -385 246 -516 35 -86 78 -183 92 -210 24 -46 33
-124 21 -177 -10 -48 -21 -64 -78 -122 -37 -36 -141 -118 -232 -180 -269 -187
-335 -244 -382 -334 -22 -41 -23 -50 -22 -303 1 -338 22 -485 81 -562 33 -44
109 -100 227 -166 54 -31 100 -56 101 -56 2 0 34 -19 71 -41 198 -119 265
-177 286 -246 7 -25 19 -48 26 -50 16 -7 15 -50 -2 -56 -7 -3 -16 -20 -20 -39
-8 -41 -64 -222 -81 -263 -7 -16 -16 -41 -20 -55 -4 -14 -11 -29 -15 -35 -4
-5 -13 -28 -19 -50 -7 -22 -16 -49 -20 -60 -98 -246 -162 -362 -227 -411 -36
-28 -42 -29 -133 -28 -53 1 -136 9 -186 19 -49 9 -135 26 -190 36 -149 29
-262 41 -335 37 -86 -5 -114 -25 -316 -230 -362 -366 -374 -394 -298 -693 110
-431 121 -511 85 -590 -10 -22 -34 -54 -54 -72 -41 -36 -386 -209 -557 -278
-63 -26 -134 -56 -157 -66 -24 -10 -49 -19 -56 -19 -7 0 -19 -6 -25 -13 -18
-17 -151 -16 -188 3 -57 28 -145 134 -303 362 -130 187 -221 287 -288 315 -41
16 -455 18 -632 1 -223 -20 -273 -60 -441 -353 -143 -250 -253 -384 -333 -403
-58 -15 -197 16 -352 78 -11 4 -47 18 -80 30 -33 12 -69 26 -80 30 -11 5 -58
23 -105 40 -151 56 -308 137 -353 183 -55 55 -74 118 -59 190 6 29 16 90 22
137 7 47 19 114 26 150 14 61 39 223 51 333 4 31 -1 72 -12 115 -18 65 -22 71
-154 205 -163 166 -332 312 -403 349 -37 20 -68 28 -103 27 -56 0 -209 -27
-332 -58 -46 -12 -120 -31 -165 -42 -46 -12 -128 -26 -183 -31 -203 -21 -236
10 -401 373 -129 284 -224 535 -224 591 0 89 74 166 334 343 259 178 299 210
347 290 l24 40 -1 348 c-1 244 -5 352 -13 360 -6 6 -11 25 -11 42 -2 82 -76
150 -320 296 -282 169 -384 246 -410 309 -7 17 -16 30 -21 30 -5 0 -9 25 -9
55 0 30 4 55 8 55 4 0 14 21 21 48 45 154 158 480 200 577 10 22 28 67 41 100
40 100 69 136 139 172 91 48 125 46 521 -28 183 -35 203 -38 286 -38 74 -1 84
2 127 30 25 16 122 108 215 202 324 329 332 341 331 467 0 76 -2 88 -39 245
-11 50 -25 110 -30 135 -5 25 -14 61 -21 80 -14 42 -25 106 -40 220 -20 146 5
192 149 273 187 105 579 281 697 313 58 16 163 18 198 5 49 -19 111 -93 309
-371 126 -178 205 -269 250 -292 50 -26 265 -34 543 -19 251 13 296 24 359 86
43 43 124 159 181 260 61 107 202 312 245 356 31 32 60 50 93 60 26 7 47 17
47 21 0 10 27 10 32 0z"/>
<path d="M4465 6814 c-11 -3 -47 -9 -80 -15 -83 -15 -177 -39 -197 -50 -10 -5
-25 -9 -34 -9 -9 0 -30 -6 -47 -14 -18 -8 -48 -20 -67 -27 -93 -37 -276 -134
-373 -198 -121 -80 -145 -100 -175 -151 -32 -55 -129 -252 -137 -280 -7 -23
-36 -93 -56 -132 -5 -10 -9 -23 -9 -29 0 -6 -6 -25 -14 -42 -18 -38 -91 -259
-112 -337 -39 -143 -92 -359 -98 -399 -4 -24 -10 -49 -14 -55 -4 -6 -13 -47
-20 -91 -7 -44 -16 -105 -22 -135 -5 -30 -14 -82 -19 -115 -6 -33 -20 -145
-31 -250 -12 -104 -23 -206 -25 -225 -3 -19 -8 -72 -11 -116 l-7 -82 34 -38
c192 -217 430 -378 714 -481 154 -56 203 -70 339 -93 129 -22 216 -26 216 -10
0 6 5 16 10 23 6 7 29 37 50 67 22 30 49 67 60 82 20 27 20 48 -1 48 -22 0
-229 101 -324 158 -74 44 -181 123 -260 193 -94 83 -225 221 -225 237 0 12 4
12 23 -2 42 -31 242 -163 277 -183 56 -33 238 -123 250 -123 5 0 29 -9 53 -20
106 -49 372 -120 522 -139 211 -27 263 -31 443 -31 596 0 1044 129 1466 423
55 38 105 71 113 74 32 12 7 -24 -74 -109 -119 -123 -298 -267 -418 -336 -75
-43 -285 -142 -301 -142 -26 0 -13 -29 62 -135 l69 -97 75 5 c103 8 218 30
325 62 50 15 99 29 110 32 11 3 25 9 30 13 6 4 23 10 40 14 30 8 192 86 255
125 19 11 42 24 50 28 54 25 268 202 344 285 l58 63 -6 90 c-8 144 -45 485
-66 610 -88 528 -190 895 -369 1330 -47 114 -143 293 -173 321 -56 54 -260
180 -383 238 -44 21 -88 42 -97 47 -73 38 -317 106 -449 124 l-47 7 -13 -39
c-8 -21 -14 -42 -14 -46 0 -8 43 -24 165 -61 30 -9 64 -21 75 -26 11 -5 57
-25 103 -44 46 -19 105 -49 133 -65 27 -17 52 -31 55 -31 6 0 108 -66 134 -87
159 -126 240 -200 240 -219 0 -9 -27 1 -77 27 -147 78 -288 146 -338 164 -27
10 -54 22 -60 25 -22 15 -255 91 -350 113 -208 50 -512 82 -705 74 -257 -11
-439 -34 -612 -77 -113 -28 -251 -71 -262 -81 -6 -5 -16 -9 -23 -9 -21 0 -250
-100 -343 -150 -158 -84 -179 -94 -187 -87 -4 4 6 20 22 35 175 160 308 253
485 340 136 67 143 70 285 115 60 19 111 40 113 45 5 17 -29 82 -42 81 -6 -1
-20 -3 -31 -5z m131 -1505 c84 -43 155 -123 188 -208 26 -68 38 -191 27 -274
-19 -136 -108 -267 -216 -318 -40 -19 -66 -24 -135 -24 -73 0 -93 4 -138 27
-217 112 -286 460 -133 673 79 110 156 154 272 155 67 0 85 -4 135 -31z m1292
4 c137 -64 232 -232 232 -409 0 -67 -45 -230 -70 -254 -3 -3 -22 -26 -43 -52
-20 -26 -63 -62 -95 -80 -53 -31 -63 -33 -148 -33 -75 0 -98 4 -136 24 -60 30
-110 79 -151 144 -51 81 -62 127 -62 267 0 124 0 125 37 200 75 151 170 218
311 219 54 1 80 -5 125 -26z"/>
</g>
</svg>
